# AST/ASF file generated using VICON BodyLanguage
# -----------------------------------------------
:version 1.10
:name VICON
:units
  mass 1.0
  length 0.45
  angle deg
:documentation
   .ast/.asf automatically generated from VICON data using
   VICON BodyBuilder and BodyLanguage model FoxedUp or BRILLIANT.MOD
:root
   order TX TY TZ RX RY RZ
   axis XYZ
   position 0 0 0  
   orientation 0 0 0 
:bonedata
  begin
     id 1 
     name lhipjoint
     direction 0.584852 -0.759097 0.285867 
     length 2.43633 
     axis 0 0 0  XYZ
  end
  begin
     id 2 
     name lfemur
     direction 0.34202 -0.939693 0  
     length 7.14704  
     axis 0 0 20  XYZ
    dof rx ry rz
    limits (-160.0 20.0)
           (-70.0 70.0)
           (-60.0 70.0)
  end
  begin
     id 3 
     name ltibia
     direction 0.342022 -0.939692 0   
     length 7.68483   
     axis 0 0 20   XYZ
    dof rx
    limits (-10.0 170.0)
  end
  begin
     id 4 
     name lfoot
     direction 0.0999605 -0.274639 0.956337   
     length 2.40452   
     axis -90 7.62852e-016 20   XYZ
    dof rx rz
    limits (-45.0 90.0)
           (-70.0 20.0)
  end
  begin
     id 5 
     name ltoes
     direction 1.53468e-011 -4.21881e-011 1   
     length 1.19837   
     axis -90 7.62852e-016 20   XYZ
    dof rx
    limits (-90.0 20.0)
  end
  begin
     id 6 
     name rhipjoint
     direction -0.569886 -0.769002 0.289597   
     length 2.40495  
     axis 0 0 0  XYZ 
  end
  begin
     id 7 
     name rfemur
     direction -0.34202 -0.939693 0   
     length 7.45086   
     axis 0 0 -20   XYZ
    dof rx ry rz
    limits (-160.0 20.0)
           (-70.0 70.0)
           (-70.0 60.0)
  end
  begin
     id 8 
     name rtibia
     direction -0.34202 -0.939693 0   
     length 7.76831   
     axis 0 0 -20   XYZ
    dof rx
    limits (-10.0 170.0)
 end
 begin
     id 9 
     name rfoot
     direction -0.0798572 -0.219406 0.97236   
     length 2.35911  
     axis -90 -7.62852e-016 -20   XYZ
    dof rx rz
    limits (-45.0 90.0)
           (-20.0 70.0)
  end
  begin
     id 10 
     name rtoes
     direction -1.53469e-011 -4.21728e-011 1   
     length 1.18261   
     axis -90 -7.62852e-016 -20   XYZ
    dof rx
    limits (-90.0 20.0)
  end
  begin
     id 11 
     name lowerback
     direction 0.0242088 0.999437 0.0232389   
     length 2.1561   
     axis 0 0 0   XYZ
    dof rx ry rz
    limits (-20.0 45.0)
           (-30.0 30.0)
           (-30.0 30.0)
  end
  begin
     id 12 
     name upperback
     direction -0.0356893 0.999013 -0.0264323   
     length 2.14431   
     axis 0 0 0   XYZ
    dof rx ry rz
    limits (-20.0 45.0)
           (-30.0 30.0)
           (-30.0 30.0)
  end
  begin
     id 13 
     name thorax
     direction -0.0472163 0.998194 -0.0371284   
     length 2.16169   
     axis 0 0 0   XYZ
    dof rx ry rz
    limits (-20.0 45.0)
           (-30.0 30.0)
           (-30.0 30.0)
  end
  begin
     id 14 
     name lowerneck
     direction 0.00863244 0.999921 0.00911972   
     length 1.58651   
     axis 0 0 0   XYZ
    dof rx ry rz
    limits (-20.0 45.0)
           (-30.0 30.0)
           (-30.0 30.0)
  end
  begin
     id 15 
     name upperneck
     direction 0.149523 0.979068 -0.138086   
     length 1.57486   
     axis 0 0 0   XYZ
    dof rx ry rz
    limits (-20.0 45.0)
           (-30.0 30.0)
           (-30.0 30.0)
  end
  begin
     id 16
     name head
     direction 0.0445219 0.997708 -0.0509576  
     length 1.6019  
     axis 0 0 0   XYZ
    dof rx ry rz
    limits (-20.0 45.0)
           (-30.0 30.0)
           (-30.0 30.0)
  end
  begin
     id 17 
     name lclavicle
     direction 0.911271 0.381667 -0.154644  
     length 3.80848  
     axis 0 0 0   XYZ
    dof ry rz
    limits (-20.0 10.0)
           (0.0 20.0)
  end
  begin
     id 18 
     name lhumerus
     direction 1 -4.49003e-011 2.1308e-027   
     length 5.19069   
     axis 180 -30 -90   XYZ
    dof rx ry rz
    limits (-60.0 90.0)
           (-90.0 90.0)
           (-90.0 90.0)
  end
  begin
     id 19
     name lradius
     direction 1 -4.48914e-011 4.01554e-027   
     length 3.30016   
     axis 180 -30 -90   XYZ
    dof rx
    limits (-10.0 170.0)
  end
  begin
     id 20
     name lwrist
     direction 1 -4.49003e-011 1.1934e-026   
     length 1.65008   
     axis -8.46377e-015 90 90   XYZ
    dof ry
    limits (-180.0 0.0)
 end
  begin
     id 21 
     name lhand
     direction 1 -4.49034e-011 2.38659e-026   
     length 0.707698   
     axis -1.52313e-014 90 90   XYZ
    dof rx rz
    limits (-90.0 90.0)
           (-45.0 45.0)
  end
  begin
     id 22 
     name lfingers
     direction 1 -4.48691e-011 4.77775e-026   
     length 0.570564   
     axis -3.04623e-014 90 90   XYZ
    dof rx
    limits (0.0 90.0)
  end
  begin
     id 23
     name lthumb
     direction 0.707107 -6.34832e-011 0.707107   
     length 0.819219   
     axis -90 45 -1.62303e-014   XYZ
    dof rx rz
    limits (-45.0 45.0)
           (-45.0 45.0)
  end
  begin
     id 24 
     name rclavicle
     direction -0.815579 0.573708 -0.0754329   
     length 3.54371  
     axis 0 0 0   XYZ 
    dof ry rz
    limits (-10.0 20.0)
           (-20.0 0.0)
  end
  begin
     id 25 
     name rhumerus
     direction -1 -4.48956e-011 3.05351e-028  
     length 5.23924   
     axis 180 30 90   XYZ
    dof rx ry rz
    limits (-90.0 60.0)
           (-90.0 90.0)
           (-90.0 90.0)
  end
  begin
     id 26 
     name rradius
     direction -1 -4.49013e-011 3.53849e-027   
     length 3.32953   
     axis 180 30 90   XYZ
    dof rx
    limits (-10.0 170.0)
  end
  begin
     id 27 
     name rwrist
     direction -1 -4.48901e-011 1.19374e-026   
     length 1.66477   
     axis -8.46377e-015 -90 -90   XYZ
    dof ry
    limits (-180.0 0.0)
  end
  begin
     id 28
     name rhand
     direction -1 -4.48877e-011 2.38764e-026   
     length 0.607414   
     axis -1.52313e-014 -90 -90   XYZ
    dof rx rz
    limits (-90.0 90.0)
           (-45.0 45.0)
  end
  begin
     id 29
     name rfingers
     direction -1 -4.48882e-011 4.77521e-026   
     length 0.489712   
     axis -3.04623e-014 -90 -90   XYZ
    dof rx
    limits (0.0 90.0)
  end
  begin
     id 30
     name rthumb
     direction -0.707107 -6.34974e-011 0.707107   
     length 0.703132   
     axis -90 -45 1.62303e-014   XYZ
    dof rx rz
    limits (-45.0 45.0)
           (-45.0 45.0)
  end
:hierarchy
  begin
    root lhipjoint rhipjoint lowerback
    lhipjoint lfemur
    lfemur ltibia
    ltibia lfoot
    lfoot ltoes
    rhipjoint rfemur
    rfemur rtibia
    rtibia rfoot
    rfoot rtoes
    lowerback upperback
    upperback thorax
    thorax lowerneck lclavicle rclavicle
    lowerneck upperneck
    upperneck head
    lclavicle lhumerus
    lhumerus lradius
    lradius lwrist
    lwrist lhand lthumb
    lhand lfingers
    rclavicle rhumerus
    rhumerus rradius
    rradius rwrist
    rwrist rhand rthumb
    rhand rfingers
  end

#!OML:ASF E:\VariousWalksJay\Project 1\Capture day 1\Session 1\Actor2.ASF
:FULLY-SPECIFIED
:DEGREES
1
root 25.4461 16.6473 47.3568 171.864 -63.2213 -170.622
lowerback -2.05954 1.66414 4.77192
upperback 5.3425 1.93955 -1.56436
thorax 6.97002 1.21516 -4.16558
lowerneck -10.8462 -1.61314 -0.475234
upperneck 6.47579 -3.38347 11.4164
head 3.93762 -1.1882 3.35449
rclavicle 2.5842e-015 -1.03368e-014
rhumerus -34.2064 2.87178 -85.7996
rradius 40.2208
rwrist -3.48489
rhand -9.50776 -7.79581
rfingers 7.12502
rthumb 16.4576 -37.1177
lclavicle 2.5842e-015 -1.03368e-014
lhumerus -22.1084 -15.8737 83.6239
lradius 22.7677
lwrist 7.55164
lhand -6.04557 -9.34396
lfingers 7.12502
lthumb 19.7886 19.6687
rfemur -14.1701 -3.47383 24.583
rtibia 33.9743
rfoot -14.1673 -12.4353
rtoes -21.6235
lfemur -9.08204 10.2302 -16.8543
ltibia 27.1192
lfoot -15.9227 15.4203
ltoes -18.3967
2
root 25.4445 16.6482 47.3456 171.838 -63.3008 -170.645
lowerback -1.80623 1.62988 5.03599
upperback 5.1684 1.91383 -1.84737
thorax 6.65828 1.21578 -4.62313
lowerneck -11.955 -2.04876 0.464235
upperneck 7.85872 -4.20259 10.5731
head 4.55771 -1.51665 2.87744
rclavicle -7.87187e-014 5.56597e-015
rhumerus -34.4508 2.58708 -86.2601
rradius 40.2219
rwrist -3.40848
rhand -9.47638 -7.84404
rfingers 7.12502
rthumb 16.4878 -37.1635
lclavicle -7.87187e-014 5.56597e-015
lhumerus -22.4077 -16.293 83.2749
lradius 22.8361
lwrist 7.75069
lhand -6.03948 -9.29535
lfingers 7.12502
lthumb 19.7944 19.7167
rfemur -14.0663 -3.42202 24.5989
rtibia 33.9541
rfoot -14.2177 -12.5872
rtoes -21.4868
lfemur -8.97675 10.2317 -16.8096
ltibia 27.0632
lfoot -15.9243 15.3003
ltoes -18.5711
3
root 25.4435 16.6488 47.3445 171.889 -63.3003 -170.714
lowerback -1.7897 1.63086 5.07329
upperback 5.15739 1.91583 -1.87372
thorax 6.64012 1.21893 -4.67241
lowerneck -11.9146 -2.00771 0.365196
upperneck 7.84614 -4.149 10.726
head 4.55009 -1.48759 2.94551
rclavicle 6.59965e-014 -2.70347e-014
rhumerus -34.418 2.5812 -86.2965
rradius 40.2211
rwrist -3.36248
rhand -10.0193 -7.75352
rfingers 7.12502
rthumb 15.965 -37.1156
lclavicle 6.59965e-014 -2.70347e-014
lhumerus -22.3986 -16.3186 83.2655
lradius 22.8133
lwrist 7.7864
lhand -6.03086 -9.28476
lfingers 7.12502
lthumb 19.8027 19.7265
rfemur -14.0551 -3.43336 24.5712
rtibia 33.9654
rfoot -14.2034 -12.6494
rtoes -21.8805
lfemur -8.95309 10.1806 -16.8319
ltibia 27.0654
lfoot -15.9953 15.2271
ltoes -18.5935
4
root 25.4492 16.6485 47.345 171.878 -63.5301 -170.63
lowerback -1.95681 1.60857 4.89136
upperback 5.21782 1.87786 -1.71296
thorax 6.78137 1.1904 -4.39853
lowerneck -12.0738 -2.09912 0.436828
upperneck 7.99698 -4.25875 10.4143
head 4.619 -1.54208 2.82787
rclavicle 2.90226e-014 -3.18055e-015
rhumerus -34.2317 2.64759 -86.0419
rradius 40.1967
rwrist -3.44824
rhand -10.1083 -7.77027
rfingers 7.12502
rthumb 15.8793 -37.1392
lclavicle 2.90226e-014 -3.18055e-015
lhumerus -22.185 -16.2395 83.4963
lradius 22.7132
lwrist 7.70142
lhand -6.03482 -9.27185
lfingers 7.12502
lthumb 19.7989 19.7398
rfemur -14.148 -3.54518 24.5774
rtibia 33.9685
rfoot -14.2889 -12.7175
rtoes -21.3049
lfemur -9.15927 10.1724 -16.8998
ltibia 27.0573
lfoot -15.6266 15.4298
ltoes -19.426
5
root 25.4454 16.6492 47.3403 171.931 -63.4684 -170.705
lowerback -1.97936 1.58625 4.86974
upperback 5.22347 1.84667 -1.68993
thorax 6.79482 1.17353 -4.3641
lowerneck -11.4404 -1.74698 -0.0788167
upperneck 7.4124 -3.70382 11.0786
head 4.32827 -1.29511 3.16283
rclavicle -2.70347e-014 3.97569e-015
rhumerus -34.1335 2.78051 -86.0404
rradius 40.1432
rwrist -3.44541
rhand -9.77757 -7.71377
rfingers 7.12502
rthumb 16.1978 -37.057
lclavicle -2.70347e-014 3.97569e-015
lhumerus -22.1238 -16.0156 83.4905
lradius 22.6571
lwrist 7.62282
lhand -6.01404 -9.31673
lfingers 7.12502
lthumb 19.8189 19.6928
rfemur -14.1114 -3.44316 24.5695
rtibia 33.9724
rfoot -14.2076 -12.8218
rtoes -21.8496
lfemur -9.08899 10.1934 -16.8948
ltibia 27.0542
lfoot -15.7238 15.4165
ltoes -19.2718
6
root 25.4446 16.6497 47.3372 171.961 -63.502 -170.731
lowerback -2.02726 1.57515 4.82438
upperback 5.23098 1.83008 -1.65161
thorax 6.82496 1.16273 -4.2983
lowerneck -11.3976 -1.70087 -0.159729
upperneck 7.41534 -3.63145 11.1194
head 4.31981 -1.26056 3.1944
rclavicle -4.7112e-014 1.35174e-014
rhumerus -34.0538 2.82822 -85.9902
rradius 40.1201
rwrist -3.46026
rhand -9.79029 -7.68319
rfingers 7.12502
rthumb 16.1856 -37.0275
lclavicle -4.7112e-014 1.35174e-014
lhumerus -22.0529 -15.9421 83.5431
lradius 22.6153
lwrist 7.59062
lhand -6.00133 -9.32585
lfingers 7.12502
lthumb 19.8311 19.6824
rfemur -14.1109 -3.41194 24.5649
rtibia 33.9763
rfoot -14.1838 -12.9237
rtoes -22.07
lfemur -9.10567 10.1898 -16.9115
ltibia 27.0571
lfoot -15.6878 15.45
ltoes -19.4424
7
root 25.4436 16.6501 47.3342 171.993 -63.5285 -170.759
lowerback -2.09322 1.56628 4.75829
upperback 5.24912 1.81544 -1.59569
thorax 6.8756 1.1518 -4.20163
lowerneck -11.329 -1.64586 -0.277451
upperneck 7.37819 -3.53761 11.176
head 4.29427 -1.21792 3.23842
rclavicle 4.37326e-015 1.98785e-014
rhumerus -33.9609 2.89386 -85.9124
rradius 40.1008
rwrist -3.48453
rhand -9.78935 -7.64861
rfingers 7.12502
rthumb 16.1865 -36.9928
lclavicle 4.37326e-015 1.98785e-014
lhumerus -21.9623 -15.8496 83.6185
lradius 22.5787
lwrist 7.5535
lhand -5.98718 -9.33832
lfingers 7.12502
lthumb 19.8447 19.6686
rfemur -14.1069 -3.36802 24.5606
rtibia 33.9718
rfoot -14.1505 -13.0326
rtoes -22.3122
lfemur -9.11351 10.1845 -16.9283
ltibia 27.0442
lfoot -15.6419 15.4881
ltoes -19.624
